<svg id="svg" xmlns="http://www.w3.org/2000/svg" xmlnsXlink="http://www.w3.org/1999/xlink" width="100%" height="auto" viewBox="0, 0, 400,405.4320987654321"><g id="svgg"><path id="path0" d="M164.630 73.623 C 163.781 73.869,162.810 74.404,162.471 74.813 C 162.132 75.221,161.453 75.556,160.963 75.556 C 160.473 75.556,159.664 76.073,159.167 76.706 C 158.669 77.339,157.986 77.765,157.649 77.653 C 157.302 77.537,157.037 77.865,157.037 78.411 C 157.037 78.940,156.563 79.975,155.985 80.711 C 155.378 81.483,154.840 83.026,154.715 84.358 C 154.595 85.628,153.924 87.848,153.223 89.293 C 152.119 91.566,151.925 92.693,151.782 97.688 C 151.572 105.049,151.505 105.289,148.671 108.861 C 147.365 110.506,145.875 112.630,145.359 113.580 C 144.842 114.531,144.048 115.864,143.594 116.543 C 142.029 118.881,138.801 127.321,138.275 130.447 C 136.939 138.384,136.587 158.318,137.757 159.728 C 138.073 160.109,138.292 160.715,138.243 161.074 C 137.993 162.923,138.359 164.955,139.071 165.667 C 139.511 166.107,139.735 166.603,139.568 166.769 C 139.402 166.936,139.709 167.382,140.250 167.761 C 141.374 168.549,141.582 169.485,140.544 169.087 C 140.164 168.941,139.706 169.059,139.527 169.349 C 139.328 169.671,139.694 169.877,140.465 169.877 C 141.582 169.877,141.728 170.079,141.728 171.620 C 141.728 172.715,142.004 173.470,142.469 173.649 C 142.877 173.805,143.210 174.256,143.210 174.650 C 143.210 175.044,142.988 175.230,142.716 175.062 C 142.444 174.894,142.222 175.093,142.222 175.504 C 142.222 175.967,142.879 176.375,143.951 176.576 C 145.529 176.872,145.679 177.048,145.679 178.603 C 145.679 179.620,145.879 180.181,146.176 179.998 C 146.450 179.829,146.823 180.093,147.005 180.586 C 147.186 181.079,147.506 181.598,147.716 181.741 C 147.925 181.884,148.188 183.168,148.300 184.594 C 148.413 186.021,148.680 187.348,148.893 187.545 C 149.107 187.741,149.159 187.401,149.008 186.790 C 148.699 185.533,148.815 185.473,150.156 186.190 C 151.102 186.696,151.499 188.148,150.692 188.148 C 150.059 188.148,150.065 191.208,150.701 192.452 C 151.130 193.291,151.111 193.726,150.621 194.316 C 149.800 195.306,150.360 195.890,151.346 195.072 C 151.979 194.546,152.099 194.609,152.099 195.466 C 152.099 196.026,152.319 196.621,152.588 196.787 C 152.896 196.978,152.789 197.768,152.301 198.915 C 151.367 201.111,150.900 204.140,151.558 203.733 C 151.814 203.575,152.169 202.779,152.348 201.965 C 152.527 201.151,152.896 200.623,153.170 200.792 C 153.497 200.994,153.483 201.282,153.129 201.636 C 152.834 201.931,152.593 202.795,152.593 203.556 C 152.593 204.328,152.320 204.942,151.975 204.946 C 151.593 204.951,151.546 205.092,151.852 205.316 C 152.420 205.734,152.672 210.972,152.108 210.623 C 151.903 210.496,151.592 209.498,151.417 208.406 C 151.242 207.314,150.880 206.420,150.611 206.420 C 150.343 206.420,150.123 205.623,150.123 204.650 C 150.123 203.455,149.923 202.947,149.506 203.084 C 148.739 203.337,148.378 205.432,149.101 205.432 C 149.392 205.432,149.630 205.765,149.630 206.173 C 149.630 206.580,149.296 206.914,148.889 206.914 C 148.481 206.914,148.148 207.109,148.148 207.347 C 148.148 207.585,148.481 208.057,148.889 208.395 C 149.296 208.733,149.645 209.483,149.664 210.060 C 149.698 211.085,149.709 211.087,150.123 210.123 C 150.480 209.295,150.553 209.393,150.583 210.735 C 150.618 212.375,151.955 214.468,152.681 214.020 C 152.904 213.882,153.086 214.240,153.086 214.815 C 153.086 215.390,152.864 215.723,152.593 215.556 C 151.705 215.007,152.075 216.806,153.069 217.873 C 153.603 218.446,153.920 219.109,153.773 219.346 C 153.627 219.583,153.783 219.716,154.120 219.642 C 154.458 219.567,154.994 220.005,155.312 220.614 C 156.270 222.450,157.662 223.745,159.496 224.509 C 160.452 224.906,162.123 226.090,163.210 227.138 C 164.296 228.187,165.611 229.121,166.132 229.214 C 166.653 229.307,167.189 229.716,167.323 230.123 C 167.524 230.730,167.433 230.753,166.825 230.251 C 166.416 229.914,165.936 229.784,165.757 229.963 C 165.214 230.506,165.393 231.111,166.096 231.111 C 166.462 231.111,167.163 231.556,167.654 232.099 C 168.598 233.141,169.877 233.426,169.877 232.593 C 169.877 231.781,171.721 232.034,172.050 232.891 C 172.217 233.326,172.664 233.564,173.042 233.419 C 173.449 233.263,173.832 233.544,173.979 234.108 C 174.151 234.766,174.664 235.064,175.633 235.069 C 177.038 235.077,180.450 236.088,181.031 236.669 C 181.418 237.056,182.689 235.929,182.401 235.454 C 182.285 235.262,181.887 235.221,181.516 235.364 C 180.392 235.795,180.144 234.658,181.235 234.074 C 181.809 233.767,182.106 233.273,181.920 232.938 C 181.738 232.612,181.992 232.725,182.484 233.189 C 183.328 233.983,183.417 233.983,184.035 233.189 C 184.631 232.423,184.748 232.417,185.309 233.128 C 186.403 234.516,188.679 234.781,188.998 233.558 C 189.186 232.841,189.390 232.699,189.644 233.110 C 189.894 233.515,190.613 233.598,191.849 233.367 C 193.507 233.055,193.597 232.961,192.798 232.376 C 191.961 231.764,191.969 231.713,192.948 231.402 C 194.100 231.036,194.916 229.499,194.102 229.228 C 193.240 228.940,193.512 228.281,194.612 227.993 C 195.428 227.780,195.572 227.484,195.299 226.578 C 194.438 223.713,193.825 223.004,191.860 222.597 C 189.824 222.176,188.339 221.248,189.654 221.219 C 190.244 221.206,190.232 221.097,189.586 220.602 C 189.155 220.271,188.585 219.333,188.320 218.519 C 188.054 217.704,187.352 216.818,186.758 216.550 C 184.764 215.649,185.383 214.262,187.618 214.619 C 190.067 215.011,192.320 214.059,192.909 212.385 C 193.373 211.066,193.381 211.081,190.698 208.034 L 189.293 206.438 188.658 207.625 C 188.307 208.280,188.162 209.370,188.334 210.055 C 188.505 210.738,188.423 211.435,188.150 211.604 C 187.867 211.779,187.630 211.314,187.597 210.523 C 187.563 209.688,187.450 209.480,187.314 210.000 C 187.190 210.475,187.020 210.864,186.938 210.864 C 185.996 210.864,182.957 209.008,180.988 207.229 C 178.377 204.872,177.691 204.762,174.848 206.246 C 173.078 207.170,171.381 207.082,171.051 206.049 C 170.899 205.574,170.539 204.693,170.251 204.091 C 169.858 203.270,169.895 202.795,170.400 202.186 C 171.911 200.366,174.150 195.824,174.522 193.827 C 175.314 189.571,175.297 189.312,174.119 187.715 C 173.402 186.743,173.047 185.732,173.208 185.119 C 173.384 184.443,173.589 184.306,173.834 184.702 C 174.322 185.492,174.910 184.527,174.536 183.551 C 174.381 183.147,174.478 182.677,174.752 182.508 C 175.084 182.303,175.070 181.686,174.712 180.657 C 174.299 179.475,174.326 178.872,174.827 178.076 C 176.080 176.083,175.534 167.677,174.055 166.199 C 173.376 165.519,172.685 164.291,172.521 163.469 C 172.357 162.648,171.995 161.975,171.718 161.975 C 168.984 161.975,165.056 155.559,166.664 153.719 C 170.354 149.496,170.270 149.701,169.065 147.863 C 168.297 146.690,168.309 146.573,169.297 145.653 C 170.705 144.341,170.711 141.017,169.304 141.771 C 168.605 142.145,168.395 142.082,168.395 141.499 C 168.395 141.070,167.966 140.741,167.407 140.741 C 166.864 140.741,166.420 140.519,166.420 140.247 C 166.420 139.975,165.920 139.744,165.309 139.732 C 163.664 139.702,158.033 136.397,158.028 135.460 C 158.023 134.538,159.996 133.370,162.963 132.538 C 167.116 131.373,169.835 130.196,170.128 129.436 C 170.330 128.912,170.236 128.879,169.733 129.297 C 169.361 129.605,168.313 129.721,167.331 129.562 C 165.760 129.307,160.306 131.598,158.370 133.327 C 158.152 133.521,157.426 133.576,156.755 133.448 C 155.193 133.149,155.283 131.038,156.914 129.717 C 157.525 129.222,158.025 128.526,158.025 128.170 C 158.025 127.814,158.506 127.397,159.094 127.243 C 159.996 127.007,160.064 126.845,159.527 126.198 C 158.989 125.549,159.044 125.432,159.887 125.432 C 160.434 125.432,160.999 125.126,161.143 124.752 C 161.286 124.379,161.921 124.126,162.554 124.191 C 163.186 124.255,163.315 124.213,162.840 124.095 C 162.364 123.978,161.975 123.675,161.975 123.422 C 161.975 123.170,161.142 122.935,160.123 122.900 C 158.674 122.851,158.950 122.733,161.393 122.359 C 164.905 121.820,165.109 121.435,161.904 121.392 C 160.721 121.376,159.248 121.171,158.631 120.936 C 157.876 120.649,156.867 120.767,155.543 121.297 C 152.924 122.345,150.109 121.891,150.478 120.481 C 150.618 119.945,150.942 119.506,151.198 119.506 C 151.454 119.506,151.554 119.329,151.420 119.112 C 150.768 118.057,154.436 116.049,157.015 116.049 C 157.751 116.049,158.506 115.897,158.692 115.711 C 159.851 114.552,166.408 113.883,165.721 114.993 C 165.543 115.282,169.090 115.025,173.979 114.394 C 175.563 114.190,175.767 114.262,175.276 114.854 C 174.357 115.962,177.052 115.756,179.597 114.524 C 181.504 113.601,182.518 112.099,181.235 112.099 C 180.963 112.099,180.741 111.765,180.741 111.358 C 180.741 110.845,181.256 110.617,182.416 110.617 C 183.790 110.617,184.146 110.396,184.400 109.383 C 184.571 108.704,184.928 108.148,185.195 108.148 C 185.461 108.148,185.679 107.815,185.679 107.407 C 185.679 106.947,185.213 106.667,184.444 106.667 C 183.688 106.667,183.210 106.386,183.210 105.941 C 183.210 105.489,183.498 105.327,183.976 105.510 C 184.733 105.801,184.538 103.376,183.751 102.716 C 182.539 101.699,182.318 100.313,183.236 99.483 C 183.949 98.838,184.057 98.451,183.659 97.971 C 183.365 97.617,183.252 97.121,183.408 96.868 C 183.564 96.616,183.482 95.773,183.226 94.995 C 182.969 94.217,182.659 92.580,182.535 91.358 C 182.224 88.273,181.696 86.381,181.227 86.672 C 180.866 86.895,179.373 84.144,178.551 81.742 C 178.293 80.985,178.127 80.917,177.806 81.435 C 177.297 82.260,176.244 81.699,176.593 80.789 C 176.733 80.425,176.487 79.989,176.046 79.820 C 175.599 79.648,175.401 79.262,175.598 78.944 C 175.847 78.541,175.566 78.471,174.642 78.703 C 173.581 78.969,173.333 78.859,173.333 78.122 C 173.333 76.934,169.707 74.568,167.886 74.568 C 166.379 74.568,165.515 73.828,166.540 73.414 C 167.560 73.003,166.288 73.142,164.630 73.623 M121.026 131.358 C 120.399 133.507,120.438 137.065,121.264 153.333 C 121.653 161.012,123.988 167.671,127.133 170.069 L 128.726 171.284 128.671 164.531 C 128.617 157.891,128.588 157.724,126.965 154.568 C 125.021 150.788,124.974 145.045,126.870 142.993 C 127.745 142.046,127.759 141.847,127.062 140.123 C 125.713 136.785,124.602 138.643,123.902 145.406 C 123.649 147.845,123.191 150.071,122.884 150.353 C 122.543 150.664,122.419 150.671,122.567 150.370 C 122.701 150.099,122.555 145.210,122.242 139.506 C 121.704 129.683,121.640 129.253,121.026 131.358 M197.118 130.208 C 196.821 130.525,196.464 131.951,196.324 133.374 C 196.167 134.979,195.704 136.355,195.108 136.994 C 193.922 138.263,193.257 143.335,194.018 145.304 C 194.597 146.804,192.737 150.222,190.654 151.486 C 190.090 151.827,189.630 152.565,189.630 153.124 C 189.630 153.936,189.418 154.074,188.580 153.808 C 187.868 153.582,187.640 153.652,187.872 154.027 C 188.085 154.372,187.635 154.695,186.674 154.887 C 185.480 155.126,185.070 155.513,184.851 156.610 C 184.695 157.388,184.285 158.025,183.939 158.025 C 183.569 158.025,183.199 158.892,183.042 160.123 C 182.895 161.278,182.706 162.778,182.622 163.457 C 182.505 164.405,182.693 164.692,183.437 164.693 C 184.133 164.694,184.497 165.148,184.735 166.309 C 184.916 167.197,185.606 168.425,186.268 169.038 C 187.264 169.961,187.402 170.405,187.073 171.620 C 186.855 172.426,186.649 174.699,186.617 176.671 C 186.585 178.642,186.361 180.378,186.119 180.527 C 185.877 180.677,185.679 181.196,185.679 181.681 C 185.679 182.953,183.960 184.345,182.832 183.987 C 181.645 183.611,179.259 185.713,179.259 187.137 C 179.259 187.707,178.936 188.148,178.519 188.148 C 178.111 188.148,177.778 188.370,177.778 188.642 C 177.778 188.914,177.944 189.099,178.148 189.055 C 178.352 189.010,179.095 189.137,179.800 189.336 C 180.709 189.593,181.627 189.392,182.955 188.646 C 184.276 187.904,184.983 187.749,185.353 188.118 C 186.233 188.998,187.532 188.706,188.562 187.397 C 189.225 186.554,189.622 186.355,189.793 186.780 C 189.952 187.174,190.060 187.093,190.084 186.562 C 190.106 186.098,189.655 185.281,189.083 184.748 C 187.984 183.724,188.244 182.458,189.458 182.924 C 189.875 183.084,190.043 182.985,189.860 182.689 C 189.291 181.769,190.703 180.741,192.530 180.743 C 194.247 180.744,197.548 182.292,197.515 183.079 C 197.487 183.754,196.202 185.185,195.625 185.185 C 194.000 185.185,195.393 186.126,197.432 186.406 C 201.072 186.907,201.705 186.613,203.192 183.739 C 204.085 182.012,204.073 181.580,202.935 174.523 C 202.307 170.628,202.320 170.481,203.462 168.634 C 204.741 166.564,204.892 162.950,204.164 151.766 C 203.961 148.641,204.066 145.135,204.442 142.490 C 205.617 134.205,200.851 126.212,197.118 130.208 M166.016 134.571 C 164.608 135.224,163.457 135.868,163.457 136.003 C 163.457 136.583,167.792 139.134,169.259 139.418 C 171.141 139.782,171.196 139.630,169.861 137.756 C 169.192 136.817,168.958 135.944,169.160 135.141 C 169.603 133.374,168.882 133.244,166.016 134.571 M170.206 134.156 C 169.366 134.997,169.915 136.296,171.111 136.296 C 172.381 136.296,172.566 135.963,172.046 134.608 C 171.738 133.806,170.790 133.573,170.206 134.156 M176.596 190.411 C 176.173 191.514,176.206 191.605,177.037 191.605 C 177.449 191.605,177.778 191.166,177.778 190.617 C 177.778 189.440,177.019 189.307,176.596 190.411 M186.674 196.947 C 186.669 197.385,186.323 197.488,185.617 197.264 C 185.009 197.071,184.688 197.126,184.854 197.394 C 185.173 197.910,183.737 197.915,182.903 197.400 C 182.285 197.017,181.235 199.041,181.235 200.616 C 181.235 201.402,181.379 201.534,181.789 201.125 C 182.093 200.820,182.649 200.689,183.023 200.832 C 183.397 200.976,183.704 200.824,183.704 200.494 C 183.704 200.143,184.037 200.022,184.506 200.202 C 184.953 200.374,186.291 199.960,187.531 199.267 C 188.754 198.584,190.059 198.025,190.433 198.025 C 190.806 198.025,191.111 197.825,191.111 197.580 C 191.111 197.335,190.283 197.212,189.272 197.306 C 188.206 197.405,187.275 197.229,187.057 196.887 C 186.777 196.446,186.680 196.461,186.674 196.947 M149.439 197.440 C 149.235 197.770,148.861 197.913,148.608 197.757 C 148.355 197.600,148.148 198.028,148.148 198.707 C 148.148 200.480,149.049 200.785,149.647 199.214 C 150.207 197.741,150.055 196.443,149.439 197.440 M144.699 200.370 C 144.695 200.981,144.914 201.481,145.185 201.481 C 145.804 201.481,145.804 200.957,145.185 200.000 C 144.798 199.401,144.705 199.472,144.699 200.370 M146.014 205.679 C 146.171 207.037,146.382 208.241,146.483 208.354 C 146.830 208.743,146.568 205.678,146.149 204.444 C 145.866 203.612,145.822 204.014,146.014 205.679 M144.691 212.840 C 144.691 213.398,145.021 213.827,145.449 213.827 C 146.055 213.827,146.101 213.628,145.679 212.840 C 145.388 212.296,145.047 211.852,144.921 211.852 C 144.795 211.852,144.691 212.296,144.691 212.840 M145.802 215.518 C 145.191 215.803,144.691 216.410,144.691 216.867 C 144.691 217.323,144.136 218.803,143.457 220.155 C 142.778 221.506,142.222 222.936,142.222 223.332 C 142.222 224.279,139.503 234.897,138.781 236.770 C 137.077 241.188,137.516 247.002,140.459 259.012 C 141.990 265.259,143.701 272.370,144.261 274.815 C 144.820 277.259,145.608 280.593,146.012 282.222 C 146.416 283.852,146.956 286.038,147.212 287.081 C 147.737 289.213,149.150 292.136,151.026 294.970 C 152.631 297.397,153.675 297.248,158.626 293.885 C 176.442 281.788,187.082 275.488,189.832 275.410 L 191.493 275.363 190.191 274.359 C 189.475 273.806,188.595 273.072,188.236 272.727 C 187.877 272.381,187.408 272.099,187.194 272.099 C 186.979 272.099,184.717 270.039,182.167 267.522 C 179.617 265.004,175.882 261.504,173.867 259.744 C 168.247 254.834,167.897 254.490,168.203 254.184 C 168.360 254.027,170.564 255.438,173.100 257.320 C 175.637 259.201,177.915 260.741,178.162 260.741 C 178.410 260.741,179.010 261.180,179.496 261.717 C 179.981 262.254,180.596 262.558,180.862 262.394 C 181.128 262.230,181.487 262.295,181.660 262.539 C 182.206 263.307,184.413 264.070,185.185 263.757 C 185.768 263.521,185.932 262.454,185.954 258.765 C 185.969 256.185,185.839 254.741,185.664 255.556 L 185.345 257.037 184.987 255.556 C 184.790 254.741,184.521 253.545,184.388 252.898 C 184.124 251.617,182.616 250.110,180.864 249.378 C 180.253 249.122,179.753 248.609,179.753 248.237 C 179.753 247.865,179.309 247.158,178.765 246.667 C 178.222 246.175,177.778 245.960,177.778 246.189 C 177.778 246.417,177.111 245.966,176.296 245.185 C 175.481 244.405,174.815 243.938,174.815 244.148 C 174.815 244.358,173.759 243.435,172.469 242.097 C 171.179 240.759,169.731 239.523,169.252 239.351 C 168.772 239.179,168.186 238.527,167.949 237.903 C 167.712 237.280,166.937 236.459,166.228 236.079 C 165.519 235.699,164.938 235.093,164.938 234.731 C 164.938 234.370,164.630 234.074,164.254 234.074 C 163.878 234.074,163.241 233.572,162.839 232.958 C 162.437 232.344,160.467 230.154,158.461 228.092 C 153.758 223.256,151.271 220.490,149.171 217.758 C 146.921 214.831,147.068 214.928,145.802 215.518 M244.248 244.324 C 244.420 245.187,244.317 245.947,244.000 246.142 C 243.694 246.332,243.457 246.143,243.457 245.708 C 243.457 244.434,241.624 244.799,241.287 246.140 C 241.121 246.801,240.597 247.467,240.122 247.620 C 239.648 247.773,238.881 248.566,238.418 249.381 C 237.955 250.197,237.289 250.864,236.937 250.864 C 236.584 250.864,235.676 251.642,234.917 252.593 C 234.159 253.543,233.307 254.321,233.025 254.321 C 232.743 254.321,231.586 255.057,230.453 255.955 C 229.321 256.854,226.840 258.566,224.938 259.759 C 217.159 264.640,208.508 270.412,206.420 272.113 C 205.198 273.109,203.031 274.662,201.605 275.564 C 198.457 277.555,198.412 277.733,201.169 277.320 C 206.909 276.459,220.805 284.965,226.190 292.635 C 226.588 293.202,228.136 294.520,229.630 295.564 C 231.123 296.608,232.942 298.129,233.670 298.943 C 234.797 300.202,235.111 300.327,235.771 299.779 C 237.096 298.680,240.000 293.513,240.000 292.256 C 240.000 291.599,240.247 290.814,240.550 290.512 C 240.852 290.210,241.289 288.999,241.520 287.821 C 241.752 286.643,242.078 285.123,242.244 284.444 C 242.410 283.765,242.742 281.432,242.981 279.259 C 243.572 273.887,244.583 270.864,245.790 270.864 C 245.977 270.864,246.187 269.871,246.258 268.657 C 246.344 267.175,246.700 266.201,247.342 265.694 C 249.506 263.983,249.562 257.835,247.439 254.963 C 246.538 253.744,246.351 252.949,246.492 250.920 C 246.588 249.531,246.514 248.395,246.327 248.395 C 246.139 248.395,245.838 247.402,245.656 246.189 C 245.474 244.975,245.016 243.726,244.638 243.412 C 244.069 242.940,244.002 243.097,244.248 244.324 M211.852 295.048 C 210.086 295.689,207.198 296.436,205.432 296.708 C 202.169 297.210,193.779 300.775,194.399 301.395 C 195.679 302.675,204.543 301.217,208.599 299.060 C 209.880 298.380,211.635 297.823,212.501 297.824 C 215.698 297.828,216.254 297.752,216.553 297.268 C 216.721 296.996,217.065 296.902,217.318 297.058 C 217.571 297.214,217.778 297.107,217.778 296.819 C 217.778 296.532,217.542 296.296,217.255 296.296 C 216.967 296.296,216.870 296.072,217.039 295.799 C 218.172 293.967,215.780 293.620,211.852 295.048 M178.765 296.670 C 178.765 296.875,178.972 297.764,179.225 298.645 C 179.550 299.778,179.521 300.247,179.126 300.247 C 178.730 300.247,178.740 300.419,179.160 300.840 C 180.249 301.928,179.822 302.716,178.148 302.708 C 176.965 302.703,176.734 302.580,177.270 302.242 C 177.669 301.989,177.853 301.639,177.677 301.463 C 177.246 301.032,175.850 301.850,175.961 302.469 C 176.010 302.741,175.549 303.034,174.938 303.121 C 174.327 303.208,173.827 303.461,173.827 303.685 C 173.827 303.908,173.278 304.228,172.606 304.397 C 168.029 305.546,168.400 312.606,173.034 312.513 C 175.404 312.465,178.272 313.004,178.271 313.496 C 178.271 313.678,175.660 313.809,172.469 313.788 C 164.194 313.731,161.580 315.976,162.135 322.663 C 162.701 329.491,164.008 331.156,167.173 329.082 C 168.109 328.469,169.024 328.371,171.326 328.638 C 174.211 328.973,174.286 328.952,174.600 327.700 C 174.777 326.996,175.238 326.420,175.625 326.420 C 176.011 326.420,176.455 326.086,176.612 325.679 C 176.768 325.272,177.094 324.938,177.337 324.938 C 177.579 324.938,177.778 325.272,177.778 325.679 C 177.778 326.091,178.217 326.420,178.765 326.420 C 179.559 326.420,179.753 326.749,179.753 328.095 C 179.753 329.129,180.037 329.880,180.494 330.055 C 181.462 330.427,181.439 331.174,180.448 331.554 C 179.923 331.755,179.576 331.526,179.403 330.866 C 179.261 330.322,178.933 329.877,178.675 329.877 C 178.416 329.877,178.326 330.265,178.474 330.741 C 178.622 331.216,178.529 331.938,178.268 332.346 C 177.952 332.839,177.790 332.880,177.785 332.469 C 177.775 331.639,175.481 331.678,175.160 332.514 C 174.876 333.255,169.358 333.051,168.861 332.281 C 168.710 332.047,167.599 331.752,166.392 331.625 C 165.185 331.498,163.345 331.274,162.303 331.127 C 160.756 330.908,160.229 331.064,159.426 331.973 L 158.443 333.086 158.690 331.945 C 159.385 328.721,154.667 330.757,153.122 334.348 C 151.626 337.824,152.606 342.216,154.878 342.220 C 155.456 342.221,156.255 342.713,156.654 343.314 C 157.249 344.210,158.032 344.467,161.035 344.752 C 165.227 345.148,166.455 345.399,167.837 346.138 C 168.380 346.429,169.350 346.667,169.994 346.667 C 170.637 346.667,172.091 347.349,173.225 348.182 C 175.331 349.731,175.766 349.810,181.481 349.667 C 185.810 349.559,187.760 349.135,187.465 348.366 C 187.328 348.010,187.481 347.630,187.805 347.522 C 188.548 347.274,186.357 342.399,185.325 342.003 C 184.472 341.675,184.916 339.797,186.059 338.897 C 186.742 338.360,186.748 338.183,186.112 337.415 C 183.037 333.703,184.529 331.613,188.980 333.397 C 191.977 334.597,194.074 334.759,194.074 333.790 C 194.074 333.299,194.300 332.758,194.576 332.588 C 194.852 332.417,194.944 332.061,194.780 331.796 C 194.617 331.531,194.743 331.002,195.060 330.619 C 195.856 329.661,196.008 327.692,195.472 325.306 C 195.212 324.149,195.203 322.755,195.450 322.019 C 196.205 319.767,195.488 318.348,193.191 317.546 C 189.933 316.409,190.480 315.506,194.198 315.885 C 195.895 316.059,197.395 316.345,197.531 316.523 C 197.667 316.701,198.556 317.150,199.506 317.522 C 200.457 317.893,201.824 318.603,202.545 319.099 C 204.604 320.515,205.184 320.240,205.882 317.518 C 206.537 314.959,206.821 307.891,206.289 307.359 C 206.124 307.194,206.212 306.472,206.485 305.755 C 207.695 302.571,204.848 301.773,197.401 303.210 C 194.586 303.753,191.408 304.170,190.339 304.135 C 188.206 304.067,182.190 305.929,181.613 306.837 C 181.366 307.225,181.250 307.171,181.250 306.667 C 181.250 305.552,182.044 304.523,182.627 304.883 C 182.910 305.058,183.281 304.975,183.452 304.699 C 183.622 304.423,184.202 304.198,184.741 304.198 C 186.040 304.198,191.671 301.248,191.354 300.734 C 191.217 300.512,191.384 300.219,191.725 300.081 C 192.067 299.944,191.772 299.814,191.070 299.792 C 190.368 299.771,188.054 300.510,185.927 301.435 C 183.800 302.360,181.763 303.003,181.400 302.863 C 180.262 302.427,180.679 301.388,182.309 300.598 L 183.877 299.839 182.062 299.080 C 180.808 298.556,180.247 298.009,180.247 297.309 C 180.247 296.738,179.924 296.296,179.506 296.296 C 179.099 296.296,178.765 296.464,178.765 296.670 M164.007 302.164 C 163.555 302.459,163.433 303.047,163.646 303.898 C 163.974 305.203,165.104 305.621,165.700 304.658 C 165.879 304.368,166.301 304.236,166.638 304.365 C 167.728 304.783,168.372 304.028,167.705 303.116 C 166.955 302.090,164.923 301.567,164.007 302.164 M189.877 348.642 C 190.044 348.914,190.502 349.136,190.893 349.136 C 191.285 349.136,191.605 348.914,191.605 348.642 C 191.605 348.370,191.147 348.148,190.588 348.148 C 190.029 348.148,189.709 348.370,189.877 348.642 M194.748 349.574 C 194.097 350.334,193.281 350.617,191.742 350.617 C 190.580 350.617,189.656 350.784,189.688 350.988 C 189.916 352.433,189.553 352.935,188.432 352.721 C 187.773 352.595,186.430 352.757,185.447 353.082 C 183.246 353.808,179.094 352.349,180.997 351.518 C 181.807 351.164,181.763 351.134,180.741 351.341 C 180.062 351.479,179.340 351.594,179.136 351.598 C 178.932 351.602,178.765 351.938,178.765 352.346 C 178.765 352.753,178.543 353.086,178.272 353.086 C 178.000 353.086,177.778 352.864,177.778 352.593 C 177.778 352.321,177.360 352.099,176.850 352.099 C 175.994 352.099,175.902 352.683,175.663 359.630 C 175.520 363.772,175.142 372.231,174.822 378.428 C 174.179 390.893,174.202 391.110,176.157 391.113 C 177.687 391.115,179.929 392.355,183.098 394.952 C 185.845 397.203,185.886 397.091,184.436 391.372 C 182.716 384.595,181.746 376.194,181.384 364.940 L 181.073 355.312 183.006 356.991 C 184.069 357.915,185.119 358.974,185.339 359.346 C 186.195 360.788,189.923 363.927,190.794 363.938 C 191.395 363.946,191.615 364.200,191.432 364.676 C 191.279 365.074,191.367 365.532,191.627 365.692 C 191.886 365.853,192.099 365.733,192.099 365.426 C 192.099 365.095,192.404 365.173,192.848 365.617 C 193.261 366.030,193.538 366.565,193.466 366.808 C 193.393 367.050,194.111 367.893,195.062 368.681 C 196.012 369.469,196.485 369.727,196.112 369.254 C 195.526 368.511,195.545 368.395,196.246 368.395 C 196.693 368.395,197.311 368.951,197.621 369.630 C 197.930 370.309,198.383 370.864,198.627 370.864 C 198.871 370.864,198.953 371.054,198.810 371.286 C 198.666 371.518,199.106 372.232,199.787 372.871 C 201.042 374.051,204.809 374.342,205.447 373.309 C 206.069 372.303,213.362 373.021,213.220 374.074 C 213.104 374.935,213.371 375.062,215.302 375.062 C 217.136 375.062,217.544 374.892,217.674 374.074 C 217.785 373.375,217.703 373.272,217.393 373.723 C 216.812 374.568,214.585 373.743,213.724 372.364 C 213.254 371.612,212.573 371.358,211.027 371.358 C 209.275 371.358,208.933 371.192,208.800 370.276 C 208.691 369.528,208.147 369.067,207.037 368.781 C 206.154 368.553,205.432 368.056,205.432 367.676 C 205.432 367.297,205.043 366.892,204.568 366.778 C 203.856 366.607,203.921 366.476,204.938 366.032 L 206.173 365.495 204.938 365.457 C 201.885 365.363,200.069 364.010,202.840 363.893 C 203.608 363.861,203.837 363.741,203.368 363.617 C 202.819 363.472,202.568 362.948,202.627 362.069 C 202.698 361.010,202.516 360.763,201.728 360.849 C 199.797 361.060,199.155 360.481,200.494 359.735 L 201.728 359.047 200.222 359.030 C 198.516 359.010,197.531 358.244,197.531 356.938 C 197.531 356.436,197.155 356.032,196.667 356.010 C 196.150 355.987,196.051 355.871,196.420 355.722 C 197.518 355.279,197.124 353.285,195.820 352.690 C 195.151 352.386,194.489 352.320,194.350 352.545 C 194.028 353.067,191.605 352.622,191.605 352.041 C 191.605 351.801,192.348 351.605,193.257 351.605 C 195.178 351.605,197.072 349.961,196.179 349.068 C 195.791 348.680,195.393 348.821,194.748 349.574 M202.175 353.158 C 201.240 354.212,201.241 354.215,202.346 353.635 C 202.957 353.314,203.457 352.837,203.457 352.575 C 203.457 351.874,203.220 351.981,202.175 353.158 M278.178 374.687 C 275.519 378.424,273.163 381.704,272.942 381.975 C 272.721 382.247,270.369 385.381,267.715 388.940 C 265.061 392.499,262.390 395.943,261.780 396.594 C 261.170 397.245,259.863 398.833,258.876 400.123 C 257.889 401.414,256.780 402.469,256.413 402.469 C 256.045 402.469,255.866 402.666,256.015 402.907 C 256.164 403.148,255.913 403.648,255.458 404.018 C 254.735 404.606,254.671 404.582,254.954 403.827 C 255.327 402.832,254.791 402.690,253.926 403.556 C 252.196 405.285,253.049 405.432,264.837 405.432 L 276.341 405.432 277.237 403.258 C 277.731 402.062,279.437 399.339,281.028 397.208 C 282.620 395.077,284.561 392.111,285.342 390.617 C 286.122 389.123,287.826 385.934,289.127 383.530 C 292.113 378.011,292.264 376.004,289.843 373.975 C 288.935 373.215,287.639 371.974,286.963 371.219 C 286.275 370.449,285.426 369.963,285.034 370.113 C 284.564 370.293,284.428 370.139,284.618 369.643 C 284.785 369.209,284.512 368.695,283.956 368.398 C 283.120 367.951,282.457 368.672,278.178 374.687 M224.198 368.889 L 222.963 369.284 224.321 369.333 C 225.068 369.361,225.840 369.399,226.037 369.420 C 226.234 369.440,226.475 369.218,226.572 368.926 C 226.773 368.324,225.999 368.312,224.198 368.889 M231.605 370.831 L 228.889 371.131 230.990 371.535 C 233.424 372.003,233.325 372.840,230.835 372.840 C 229.654 372.840,229.136 373.065,229.136 373.580 C 229.136 374.115,229.684 374.321,231.111 374.321 C 232.318 374.321,233.086 374.091,233.086 373.728 C 233.086 373.279,233.234 373.283,233.700 373.749 C 234.560 374.610,233.369 375.291,230.988 375.301 C 229.692 375.306,229.136 375.526,229.136 376.034 C 229.136 376.433,228.858 376.657,228.519 376.533 C 227.236 376.063,226.724 377.117,226.616 380.453 C 226.496 384.170,227.122 385.185,229.535 385.185 C 230.466 385.185,230.678 385.393,230.488 386.118 C 230.138 387.458,230.783 388.233,232.318 388.320 C 233.353 388.378,233.715 388.701,233.925 389.753 C 234.181 391.027,235.062 391.697,235.062 390.617 C 235.062 390.346,235.419 390.123,235.855 390.123 C 236.385 390.123,236.546 390.390,236.341 390.927 C 236.171 391.369,236.266 392.012,236.552 392.356 C 236.838 392.701,237.008 393.248,236.931 393.572 C 236.853 393.896,237.568 394.589,238.519 395.112 C 239.469 395.635,240.270 396.448,240.297 396.920 C 240.405 398.757,240.518 398.972,241.235 398.697 C 241.734 398.505,241.975 398.721,241.975 399.359 C 241.975 399.879,242.263 400.699,242.615 401.180 C 243.194 401.972,243.253 401.924,243.232 400.671 C 243.216 399.660,243.477 399.242,244.198 399.123 C 244.755 399.031,244.970 399.132,244.691 399.356 C 243.820 400.057,243.902 402.518,244.792 402.361 C 245.224 402.285,245.681 402.523,245.810 402.891 C 245.984 403.391,245.747 403.469,244.873 403.198 C 243.749 402.851,243.757 402.887,245.087 404.134 C 246.285 405.258,246.897 405.432,249.655 405.432 C 252.913 405.432,253.087 405.305,252.797 403.142 C 252.774 402.968,253.040 402.650,253.388 402.435 C 253.864 402.141,253.740 401.816,252.888 401.126 C 251.316 399.854,250.765 395.591,252.158 395.485 C 252.669 395.447,252.198 395.280,251.111 395.115 L 249.136 394.815 250.494 393.615 C 251.241 392.955,251.852 392.121,251.852 391.763 C 251.852 391.404,252.296 391.111,252.840 391.111 C 254.792 391.111,253.761 388.449,251.358 387.284 C 250.216 386.731,250.271 386.704,252.099 386.924 L 254.074 387.161 252.469 386.419 C 250.836 385.663,250.414 384.924,251.423 384.587 C 251.809 384.459,251.727 383.908,251.161 382.813 C 250.552 381.634,250.471 380.981,250.849 380.275 C 251.577 378.916,251.504 378.765,250.123 378.765 C 249.433 378.765,248.889 378.479,248.889 378.116 C 248.889 376.683,245.025 375.311,240.818 375.252 C 237.441 375.204,237.109 375.133,238.765 374.811 C 239.852 374.600,240.907 374.528,241.111 374.650 C 241.315 374.773,241.745 374.711,242.066 374.512 C 243.071 373.891,241.014 373.486,238.664 373.843 C 236.853 374.117,236.542 374.049,236.780 373.429 C 237.045 372.739,235.242 370.271,234.605 370.451 C 234.449 370.495,233.099 370.666,231.605 370.831 M205.550 377.020 C 206.912 378.558,208.686 379.071,207.436 377.565 C 207.153 377.225,207.068 376.800,207.247 376.621 C 207.426 376.443,207.104 376.296,206.531 376.296 C 205.959 376.296,205.353 376.074,205.185 375.802 C 205.017 375.531,204.690 375.309,204.457 375.309 C 204.225 375.309,204.717 376.079,205.550 377.020 M210.370 376.049 C 210.370 376.457,210.593 376.790,210.864 376.790 C 211.136 376.790,211.358 376.457,211.358 376.049 C 211.358 375.642,211.136 375.309,210.864 375.309 C 210.593 375.309,210.370 375.642,210.370 376.049 M254.321 392.593 C 254.321 392.864,254.654 393.086,255.062 393.086 C 255.469 393.086,255.802 392.864,255.802 392.593 C 255.802 392.321,255.469 392.099,255.062 392.099 C 254.654 392.099,254.321 392.321,254.321 392.593 M135.922 393.824 C 133.313 394.958,128.395 398.849,128.395 399.779 C 128.395 399.952,127.895 400.792,127.284 401.645 C 126.673 402.498,125.908 403.699,125.585 404.314 L 124.997 405.432 133.424 405.432 L 141.852 405.432 141.480 403.827 C 141.275 402.944,141.043 401.667,140.964 400.988 C 140.886 400.309,140.785 399.753,140.740 399.753 C 140.696 399.753,140.554 399.104,140.425 398.310 C 140.296 397.516,139.965 396.446,139.690 395.932 C 139.332 395.262,139.375 394.776,139.842 394.210 C 140.417 393.514,140.335 393.451,139.151 393.676 C 138.412 393.817,137.925 393.741,138.069 393.509 C 138.435 392.917,137.793 393.011,135.922 393.824 " stroke="none" fillRule="evenodd"></path></g></svg>